<svg width="128" height="128" viewBox="0 0 128 128" fill="none" xmlns="http://www.w3.org/2000/svg">
<g id="tool/logo-vw">
<path id="Vector" d="M64.0003 112.427C37.4403 112.427 15.6803 90.5603 15.6803 64.0003C15.6803 58.027 16.747 52.3737 18.7737 47.0403L47.0403 103.894C47.3603 104.64 47.8937 105.28 48.747 105.28C49.6003 105.28 50.1337 104.64 50.4537 103.894L63.467 74.7737C63.5737 74.4537 63.787 74.1337 64.107 74.1337C64.427 74.1337 64.5337 74.4537 64.747 74.7737L77.7603 103.894C78.0803 104.64 78.6137 105.28 79.467 105.28C80.3203 105.28 80.8537 104.64 81.1737 103.894L109.44 47.0403C111.467 52.3737 112.534 58.027 112.534 64.0003C112.32 90.5603 90.5603 112.427 64.0003 112.427ZM64.0003 53.0137C63.6803 53.0137 63.5737 52.6937 63.3603 52.3737L48.2137 18.2403C53.1203 16.427 58.4537 15.467 64.0003 15.467C69.547 15.467 74.8803 16.427 79.787 18.2403L64.6403 52.3737C64.427 52.8003 64.3203 53.0137 64.0003 53.0137ZM48.5337 88.107C48.2137 88.107 48.107 87.787 47.8937 87.467L23.3603 37.9737C27.7337 31.2537 33.6003 25.6003 40.747 21.6537L58.4537 61.0137C58.667 61.6537 59.2003 61.867 59.7337 61.867H68.267C68.907 61.867 69.3337 61.7603 69.6537 61.0137L87.3603 21.6537C94.4003 25.6003 100.374 31.2537 104.747 37.9737L80.0003 87.467C79.8937 87.787 79.6803 88.107 79.3603 88.107C79.0403 88.107 78.9337 87.787 78.7203 87.467L69.4403 66.347C69.1203 65.6003 68.6937 65.4937 68.0537 65.4937H59.5203C58.8803 65.4937 58.4537 65.6003 58.1337 66.347L49.1737 87.467C49.067 87.787 48.8537 88.107 48.5337 88.107ZM64.0003 117.334C93.547 117.334 117.334 93.547 117.334 64.0003C117.334 34.4537 93.547 10.667 64.0003 10.667C34.4537 10.667 10.667 34.4537 10.667 64.0003C10.667 93.547 34.4537 117.334 64.0003 117.334Z" fill="white"/>
</g>
</svg>
